<svg xmlns="http://www.w3.org/2000/svg" xmlns:xlink="http://www.w3.org/1999/xlink" width="2000" zoomAndPan="magnify" viewBox="0 0 1500 1499.999933" height="2000" preserveAspectRatio="xMidYMid meet" version="1.0"><defs><clipPath id="3a1e43016d"><path d="M 490.125 307.292969 L 1009.875 307.292969 L 1009.875 907.292969 L 490.125 907.292969 Z M 490.125 307.292969 " clip-rule="nonzero"/></clipPath><clipPath id="7509b2f797"><path d="M 596 1125.113281 L 605 1125.113281 L 605 1230 L 596 1230 Z M 596 1125.113281 " clip-rule="nonzero"/></clipPath><clipPath id="bc07a7ff48"><path d="M 565.703125 1174.789062 L 634.585938 1174.789062 L 634.585938 1180.238281 L 565.703125 1180.238281 Z M 565.703125 1174.789062 " clip-rule="nonzero"/></clipPath></defs><g clip-path="url(#3a1e43016d)"><path fill="#f8b959" d="M 764.308594 612.871094 C 787.183594 612.625 834.992188 607.335938 900.164062 607.335938 C 834.992188 607.335938 787.183594 602.023438 764.308594 601.796875 C 794.714844 586.453125 868.148438 539.214844 1009.988281 457.3125 C 868.148438 539.195312 790.523438 579.1875 762.027344 597.851562 C 773.261719 577.90625 792.578125 533.859375 825.164062 477.421875 C 792.578125 533.859375 764.085938 572.613281 752.421875 592.3125 C 754.335938 558.304688 750.140625 471.09375 750.140625 307.3125 C 750.140625 471.09375 745.949219 558.304688 747.863281 592.3125 C 736.222656 572.613281 707.707031 533.859375 675.121094 477.421875 C 707.707031 533.859375 727.023438 577.925781 738.257812 597.851562 C 709.742188 579.1875 632.136719 539.214844 490.296875 457.3125 C 632.136719 539.195312 705.570312 586.433594 735.976562 601.796875 C 713.101562 602.042969 665.292969 607.335938 600.121094 607.335938 C 665.292969 607.335938 713.101562 612.648438 735.976562 612.871094 C 705.570312 628.214844 632.136719 675.457031 490.296875 757.335938 C 632.136719 675.457031 709.761719 635.460938 738.257812 616.796875 C 727.023438 636.746094 707.707031 680.789062 675.121094 737.226562 C 707.707031 680.789062 736.199219 642.035156 747.863281 622.335938 C 745.949219 656.34375 750.140625 743.554688 750.140625 907.335938 C 750.140625 743.554688 754.335938 656.34375 752.421875 622.335938 C 764.0625 642.035156 792.578125 680.789062 825.164062 737.226562 C 792.578125 680.789062 773.261719 636.722656 762.027344 616.796875 C 790.542969 635.460938 868.148438 675.433594 1009.984375 757.335938 C 868.148438 675.476562 794.714844 628.238281 764.308594 612.871094 Z M 764.308594 612.871094 " fill-opacity="1" fill-rule="nonzero"/></g></svg>