<svg xmlns="http://www.w3.org/2000/svg" xmlns:xlink="http://www.w3.org/1999/xlink" width="2000" zoomAndPan="magnify" viewBox="0 0 1500 1499.999933" height="2000" preserveAspectRatio="xMidYMid meet" version="1.0"><defs><g/></defs><rect x="-150" width="1800" fill="#ffffff" y="-149.999993" height="1799.99992" fill-opacity="1"/><rect x="-150" width="1800" fill="#ffffff" y="-149.999993" height="1799.99992" fill-opacity="1"/><g fill="#000000" fill-opacity="1"><g transform="translate(149.160694, 804.162919)"><g><path d="M 130.5625 -75.234375 C 127.164062 -74.210938 124.828125 -72.382812 123.546875 -69.75 C 122.273438 -67.113281 121.640625 -64.179688 121.640625 -60.953125 L 121.640625 1.015625 C 120.285156 -1.023438 118.546875 -2.894531 116.421875 -4.59375 C 114.296875 -6.289062 111.957031 -7.140625 109.40625 -7.140625 C 106.6875 -7.140625 103.835938 -6.710938 100.859375 -5.859375 C 97.878906 -5.015625 94.859375 -4.082031 91.796875 -3.0625 C 88.742188 -2.039062 85.644531 -1.101562 82.5 -0.25 C 79.351562 0.59375 76.078125 1.015625 72.671875 1.015625 C 62.648438 1.015625 53.726562 -1.234375 45.90625 -5.734375 C 38.082031 -10.242188 31.445312 -16.109375 26 -23.328125 C 20.5625 -30.554688 16.441406 -38.675781 13.640625 -47.6875 C 10.835938 -56.695312 9.4375 -65.707031 9.4375 -74.71875 C 9.4375 -84.070312 11.09375 -93 14.40625 -101.5 C 17.71875 -110 22.304688 -117.4375 28.171875 -123.8125 C 34.046875 -130.1875 41.019531 -135.285156 49.09375 -139.109375 C 57.164062 -142.929688 66.046875 -144.84375 75.734375 -144.84375 C 77.265625 -144.84375 78.796875 -144.757812 80.328125 -144.59375 C 81.859375 -144.425781 83.390625 -144.253906 84.921875 -144.078125 L 90.78125 -143.578125 C 92.3125 -143.398438 93.84375 -143.226562 95.375 -143.0625 C 96.90625 -142.894531 98.4375 -142.8125 99.96875 -142.8125 C 102.34375 -142.8125 104.765625 -143.148438 107.234375 -143.828125 C 109.703125 -144.503906 111.445312 -146.117188 112.46875 -148.671875 L 118.078125 -117.8125 C 116.710938 -121.726562 114.710938 -125.210938 112.078125 -128.265625 C 109.441406 -131.328125 106.421875 -133.921875 103.015625 -136.046875 C 99.617188 -138.171875 95.921875 -139.828125 91.921875 -141.015625 C 87.929688 -142.210938 83.984375 -142.8125 80.078125 -142.8125 C 69.535156 -142.8125 60.820312 -140.769531 53.9375 -136.6875 C 47.050781 -132.601562 41.609375 -127.242188 37.609375 -120.609375 C 33.617188 -113.984375 30.816406 -106.421875 29.203125 -97.921875 C 27.585938 -89.421875 26.78125 -80.664062 26.78125 -71.65625 C 26.78125 -64.175781 27.710938 -56.351562 29.578125 -48.1875 C 31.453125 -40.03125 34.34375 -32.507812 38.25 -25.625 C 42.164062 -18.738281 47.3125 -13.085938 53.6875 -8.671875 C 60.0625 -4.253906 67.664062 -2.046875 76.5 -2.046875 C 79.90625 -2.046875 83.390625 -2.597656 86.953125 -3.703125 C 90.523438 -4.804688 93.753906 -6.421875 96.640625 -8.546875 C 99.535156 -10.671875 101.875 -13.257812 103.65625 -16.3125 C 105.445312 -19.375 106.34375 -22.773438 106.34375 -26.515625 L 106.34375 -60.4375 C 106.34375 -63.832031 105.660156 -66.929688 104.296875 -69.734375 C 102.941406 -72.546875 100.5625 -74.378906 97.15625 -75.234375 Z M 130.5625 -75.234375 "/></g></g></g><g fill="#000000" fill-opacity="1"><g transform="translate(281.262053, 804.162919)"><g><path d="M 145.359375 -77.53125 C 145.359375 -71.40625 144.335938 -65.453125 142.296875 -59.671875 C 140.253906 -53.890625 137.40625 -48.703125 133.75 -44.109375 C 130.09375 -39.523438 125.628906 -35.828125 120.359375 -33.015625 C 115.097656 -30.210938 109.234375 -28.8125 102.765625 -28.8125 C 96.304688 -28.8125 90.441406 -30.210938 85.171875 -33.015625 C 79.898438 -35.828125 75.4375 -39.523438 71.78125 -44.109375 C 68.125 -48.703125 65.273438 -53.890625 63.234375 -59.671875 C 61.203125 -65.453125 60.1875 -71.40625 60.1875 -77.53125 C 60.1875 -83.476562 61.203125 -89.34375 63.234375 -95.125 C 65.273438 -100.90625 68.125 -106.085938 71.78125 -110.671875 C 75.4375 -115.265625 79.898438 -118.960938 85.171875 -121.765625 C 90.441406 -124.578125 96.304688 -125.984375 102.765625 -125.984375 C 109.234375 -125.984375 115.097656 -124.578125 120.359375 -121.765625 C 125.628906 -118.960938 130.09375 -115.265625 133.75 -110.671875 C 137.40625 -106.085938 140.253906 -100.90625 142.296875 -95.125 C 144.335938 -89.34375 145.359375 -83.476562 145.359375 -77.53125 Z M 100.21875 -2.046875 C 108.382812 -2.046875 116.289062 -3.742188 123.9375 -7.140625 C 131.582031 -10.535156 137.363281 -15.890625 141.28125 -23.203125 L 135.40625 0 L 8.921875 0 C 12.660156 -1.1875 15.125 -3.351562 16.3125 -6.5 C 17.507812 -9.644531 18.109375 -12.921875 18.109375 -16.328125 L 18.109375 -109.40625 C 18.109375 -112.800781 17.507812 -115.941406 16.3125 -118.828125 C 15.125 -121.722656 12.660156 -123.765625 8.921875 -124.953125 L 42.59375 -124.953125 C 39.019531 -123.765625 36.632812 -121.722656 35.4375 -118.828125 C 34.25 -115.941406 33.65625 -112.800781 33.65625 -109.40625 L 33.65625 -2.046875 Z M 76.5 -79.8125 C 76.5 -75.90625 77.007812 -71.101562 78.03125 -65.40625 C 79.050781 -59.71875 80.664062 -54.28125 82.875 -49.09375 C 85.082031 -43.90625 87.972656 -39.441406 91.546875 -35.703125 C 95.117188 -31.960938 99.457031 -30.09375 104.5625 -30.09375 C 109.320312 -30.09375 113.269531 -31.75 116.40625 -35.0625 C 119.550781 -38.375 122.101562 -42.367188 124.0625 -47.046875 C 126.019531 -51.722656 127.378906 -56.65625 128.140625 -61.84375 C 128.910156 -67.03125 129.296875 -71.40625 129.296875 -74.96875 C 129.296875 -78.882812 128.785156 -83.6875 127.765625 -89.375 C 126.742188 -95.070312 125.128906 -100.554688 122.921875 -105.828125 C 120.710938 -111.097656 117.863281 -115.5625 114.375 -119.21875 C 110.882812 -122.875 106.59375 -124.703125 101.5 -124.703125 C 96.90625 -124.703125 93.035156 -123.039062 89.890625 -119.71875 C 86.742188 -116.40625 84.148438 -112.367188 82.109375 -107.609375 C 80.078125 -102.847656 78.632812 -97.914062 77.78125 -92.8125 C 76.925781 -87.71875 76.5 -83.382812 76.5 -79.8125 Z M 76.5 -79.8125 "/></g></g></g><g fill="#000000" fill-opacity="1"><g transform="translate(431.214962, 804.162919)"><g><path d="M 172.90625 -124.953125 C 168.988281 -123.929688 165.628906 -122.144531 162.828125 -119.59375 C 160.023438 -117.050781 158.023438 -113.820312 156.828125 -109.90625 L 122.921875 -0.25 L 89.765625 -94.609375 L 60.4375 -0.25 L 21.671875 -108.640625 C 20.648438 -111.703125 19.035156 -114.847656 16.828125 -118.078125 C 14.617188 -121.304688 12.070312 -123.597656 9.1875 -124.953125 L 44.625 -124.953125 C 42.414062 -124.109375 40.671875 -122.535156 39.390625 -120.234375 C 38.117188 -117.941406 37.484375 -115.691406 37.484375 -113.484375 C 37.484375 -111.609375 37.820312 -109.992188 38.5 -108.640625 L 66.8125 -27.03125 L 88.75 -97.921875 C 87.726562 -99.960938 86.707031 -102.34375 85.6875 -105.0625 C 84.664062 -107.78125 83.472656 -110.457031 82.109375 -113.09375 C 80.753906 -115.726562 79.222656 -118.109375 77.515625 -120.234375 C 75.816406 -122.359375 73.78125 -123.929688 71.40625 -124.953125 L 106.84375 -124.953125 C 104.46875 -124.109375 102.6875 -122.535156 101.5 -120.234375 C 100.3125 -117.941406 99.71875 -115.609375 99.71875 -113.234375 C 99.71875 -111.523438 99.96875 -109.992188 100.46875 -108.640625 L 129.03125 -27.03125 L 155.046875 -110.421875 C 155.554688 -111.785156 155.8125 -113.0625 155.8125 -114.25 C 155.8125 -116.96875 154.875 -119.300781 153 -121.25 C 151.132812 -123.207031 148.925781 -124.441406 146.375 -124.953125 Z M 172.90625 -124.953125 "/></g></g></g><g fill="#000000" fill-opacity="1"><g transform="translate(600.03952, 804.162919)"><g><path d="M 94.359375 -31.109375 C 94.359375 -25.328125 93.125 -20.351562 90.65625 -16.1875 C 88.1875 -12.03125 85 -8.632812 81.09375 -6 C 77.1875 -3.363281 72.765625 -1.445312 67.828125 -0.25 C 62.898438 0.933594 57.882812 1.53125 52.78125 1.53125 C 49.550781 1.53125 46.40625 1.101562 43.34375 0.25 C 40.289062 -0.59375 37.359375 -1.484375 34.546875 -2.421875 C 31.742188 -3.359375 28.984375 -4.25 26.265625 -5.09375 C 23.546875 -5.945312 20.828125 -6.375 18.109375 -6.375 C 16.234375 -6.375 14.445312 -5.863281 12.75 -4.84375 C 11.050781 -3.820312 9.691406 -2.546875 8.671875 -1.015625 L 8.671875 -39.53125 C 10.203125 -35.101562 12.367188 -30.59375 15.171875 -26 C 17.972656 -21.414062 21.285156 -17.296875 25.109375 -13.640625 C 28.941406 -9.984375 33.191406 -6.960938 37.859375 -4.578125 C 42.535156 -2.203125 47.425781 -1.015625 52.53125 -1.015625 C 56.101562 -1.015625 59.757812 -1.394531 63.5 -2.15625 C 67.238281 -2.925781 70.59375 -4.203125 73.5625 -5.984375 C 76.539062 -7.773438 79.007812 -10.15625 80.96875 -13.125 C 82.925781 -16.101562 83.90625 -19.71875 83.90625 -23.96875 C 83.90625 -29.238281 82.117188 -33.613281 78.546875 -37.09375 C 74.972656 -40.582031 70.507812 -43.769531 65.15625 -46.65625 C 59.800781 -49.550781 53.976562 -52.316406 47.6875 -54.953125 C 41.394531 -57.585938 35.570312 -60.644531 30.21875 -64.125 C 24.863281 -67.613281 20.398438 -71.78125 16.828125 -76.625 C 13.253906 -81.476562 11.46875 -87.472656 11.46875 -94.609375 C 11.46875 -100.046875 12.53125 -104.804688 14.65625 -108.890625 C 16.78125 -112.972656 19.585938 -116.414062 23.078125 -119.21875 C 26.566406 -122.019531 30.601562 -124.097656 35.1875 -125.453125 C 39.78125 -126.816406 44.628906 -127.5 49.734375 -127.5 C 53.128906 -127.5 56.359375 -127.03125 59.421875 -126.09375 C 62.484375 -125.164062 65.332031 -124.148438 67.96875 -123.046875 C 70.601562 -121.941406 73.023438 -120.921875 75.234375 -119.984375 C 77.441406 -119.046875 79.3125 -118.578125 80.84375 -118.578125 C 83.21875 -118.578125 85.082031 -119.300781 86.4375 -120.75 C 87.800781 -122.195312 88.828125 -123.851562 89.515625 -125.71875 C 89.335938 -120.445312 88.992188 -115.21875 88.484375 -110.03125 C 87.972656 -104.851562 87.71875 -99.628906 87.71875 -94.359375 C 86.53125 -98.429688 84.660156 -102.335938 82.109375 -106.078125 C 79.566406 -109.828125 76.59375 -113.144531 73.1875 -116.03125 C 69.789062 -118.925781 66.050781 -121.265625 61.96875 -123.046875 C 57.882812 -124.828125 53.632812 -125.71875 49.21875 -125.71875 C 45.820312 -125.71875 42.460938 -125.25 39.140625 -124.3125 C 35.828125 -123.382812 32.894531 -122.023438 30.34375 -120.234375 C 27.789062 -118.453125 25.707031 -116.15625 24.09375 -113.34375 C 22.476562 -110.539062 21.671875 -107.269531 21.671875 -103.53125 C 21.671875 -98.09375 23.457031 -93.546875 27.03125 -89.890625 C 30.601562 -86.234375 35.109375 -82.875 40.546875 -79.8125 C 45.984375 -76.757812 51.804688 -73.867188 58.015625 -71.140625 C 64.222656 -68.421875 70.046875 -65.273438 75.484375 -61.703125 C 80.921875 -58.140625 85.425781 -53.9375 89 -49.09375 C 92.570312 -44.25 94.359375 -38.253906 94.359375 -31.109375 Z M 94.359375 -31.109375 "/></g></g></g><g fill="#000000" fill-opacity="1"><g transform="translate(696.437766, 804.162919)"><g><path d="M 25.25 -18.875 C 25.25 -13.9375 26.609375 -9.894531 29.328125 -6.75 C 32.046875 -3.613281 35.613281 -1.363281 40.03125 0 L 9.1875 0 C 13.601562 -1.363281 17.085938 -3.613281 19.640625 -6.75 C 22.191406 -9.894531 23.46875 -13.9375 23.46875 -18.875 L 23.46875 -108.125 C 23.46875 -112.207031 22.019531 -115.691406 19.125 -118.578125 C 16.238281 -121.472656 12.925781 -123.597656 9.1875 -124.953125 L 37.234375 -124.953125 L 88.75 -21.421875 L 133.125 -124.953125 L 155.5625 -124.953125 C 151.988281 -123.765625 149.5625 -121.722656 148.28125 -118.828125 C 147.007812 -115.941406 146.375 -112.800781 146.375 -109.40625 L 146.375 -16.0625 C 146.375 -12.664062 147.007812 -9.4375 148.28125 -6.375 C 149.5625 -3.3125 151.988281 -1.1875 155.5625 0 L 121.890625 0 C 125.628906 -1.1875 128.132812 -3.3125 129.40625 -6.375 C 130.6875 -9.4375 131.328125 -12.664062 131.328125 -16.0625 L 131.328125 -115.015625 L 81.859375 -0.25 L 25.25 -114.5 Z M 25.25 -18.875 "/></g></g></g><g fill="#000000" fill-opacity="1"><g transform="translate(855.82644, 804.162919)"><g><path d="M 57.890625 -2.046875 C 65.878906 -2.046875 73.695312 -3.914062 81.34375 -7.65625 C 89 -11.394531 94.78125 -16.914062 98.6875 -24.21875 L 92.828125 0 L 8.921875 0 C 12.660156 -1.1875 15.125 -3.351562 16.3125 -6.5 C 17.507812 -9.644531 18.109375 -12.921875 18.109375 -16.328125 L 18.109375 -109.40625 C 18.109375 -112.800781 17.507812 -115.984375 16.3125 -118.953125 C 15.125 -121.929688 12.660156 -123.929688 8.921875 -124.953125 L 91.046875 -124.953125 L 96.140625 -100.984375 C 92.234375 -108.460938 87.003906 -113.988281 80.453125 -117.5625 C 73.910156 -121.132812 66.472656 -122.921875 58.140625 -122.921875 L 33.65625 -122.921875 L 33.65625 -64.515625 L 49.46875 -64.515625 C 54.0625 -64.515625 58.3125 -65.492188 62.21875 -67.453125 C 66.132812 -69.410156 68.769531 -72.851562 70.125 -77.78125 L 70.125 -49.734375 C 68.769531 -54.660156 66.132812 -58.015625 62.21875 -59.796875 C 58.3125 -61.585938 54.0625 -62.484375 49.46875 -62.484375 L 33.65625 -62.484375 L 33.65625 -2.046875 Z M 57.890625 -2.046875 "/></g></g></g><g fill="#000000" fill-opacity="1"><g transform="translate(958.345169, 804.162919)"><g><path d="M 68.59375 -16.328125 C 68.59375 -12.921875 69.1875 -9.644531 70.375 -6.5 C 71.570312 -3.351562 74.039062 -1.1875 77.78125 0 L 43.859375 0 C 47.773438 -1.1875 50.285156 -3.3125 51.390625 -6.375 C 52.492188 -9.4375 53.046875 -12.753906 53.046875 -16.328125 L 53.296875 -122.15625 L 41.3125 -122.15625 C 34.507812 -122.15625 28.257812 -120.367188 22.5625 -116.796875 C 16.875 -113.222656 12.414062 -108.460938 9.1875 -102.515625 L 13.515625 -124.953125 L 108.125 -124.953125 L 112.71875 -102.765625 C 109.488281 -108.378906 104.984375 -113.015625 99.203125 -116.671875 C 93.421875 -120.328125 87.210938 -122.15625 80.578125 -122.15625 L 68.59375 -122.15625 Z M 68.59375 -16.328125 "/></g></g></g><g fill="#000000" fill-opacity="1"><g transform="translate(1074.890234, 804.162919)"><g><path d="M 33.65625 -16.328125 C 33.65625 -12.921875 34.25 -9.644531 35.4375 -6.5 C 36.632812 -3.351562 39.019531 -1.1875 42.59375 0 L 8.921875 0 C 12.660156 -1.1875 15.125 -3.3125 16.3125 -6.375 C 17.507812 -9.4375 18.109375 -12.753906 18.109375 -16.328125 L 18.109375 -109.40625 C 18.109375 -112.800781 17.507812 -115.941406 16.3125 -118.828125 C 15.125 -121.722656 12.660156 -123.765625 8.921875 -124.953125 L 42.59375 -124.953125 C 39.019531 -123.765625 36.632812 -121.722656 35.4375 -118.828125 C 34.25 -115.941406 33.65625 -112.800781 33.65625 -109.40625 Z M 33.65625 -16.328125 "/></g></g></g><g fill="#000000" fill-opacity="1"><g transform="translate(1121.30417, 804.162919)"><g><path d="M 119.09375 -18.109375 C 116.195312 -15.554688 112.878906 -13.175781 109.140625 -10.96875 C 105.398438 -8.757812 101.488281 -6.800781 97.40625 -5.09375 C 93.332031 -3.394531 89.210938 -2.035156 85.046875 -1.015625 C 80.878906 0.00390625 76.84375 0.515625 72.9375 0.515625 C 64.09375 0.515625 55.757812 -1.097656 47.9375 -4.328125 C 40.125 -7.566406 33.328125 -11.988281 27.546875 -17.59375 C 21.765625 -23.207031 17.210938 -29.835938 13.890625 -37.484375 C 10.578125 -45.140625 8.921875 -53.472656 8.921875 -62.484375 C 8.921875 -71.492188 10.578125 -79.820312 13.890625 -87.46875 C 17.210938 -95.125 21.765625 -101.753906 27.546875 -107.359375 C 33.328125 -112.972656 40.125 -117.394531 47.9375 -120.625 C 55.757812 -123.851562 64.09375 -125.46875 72.9375 -125.46875 C 79.90625 -125.46875 87.128906 -124.570312 94.609375 -122.78125 C 102.085938 -121 108.546875 -117.898438 113.984375 -113.484375 L 113.984375 -93.078125 C 111.441406 -96.648438 108.507812 -100.21875 105.1875 -103.78125 C 101.875 -107.351562 98.304688 -110.582031 94.484375 -113.46875 C 90.660156 -116.363281 86.535156 -118.703125 82.109375 -120.484375 C 77.691406 -122.273438 73.1875 -123.171875 68.59375 -123.171875 C 61.289062 -123.171875 55.003906 -121.425781 49.734375 -117.9375 C 44.460938 -114.457031 40.082031 -110.039062 36.59375 -104.6875 C 33.101562 -99.332031 30.550781 -93.335938 28.9375 -86.703125 C 27.320312 -80.078125 26.515625 -73.617188 26.515625 -67.328125 C 26.515625 -60.359375 27.445312 -53.003906 29.3125 -45.265625 C 31.1875 -37.523438 34.078125 -30.46875 37.984375 -24.09375 C 41.898438 -17.71875 46.875 -12.445312 52.90625 -8.28125 C 58.945312 -4.125 66.132812 -2.046875 74.46875 -2.046875 C 79.226562 -2.046875 83.6875 -2.9375 87.84375 -4.71875 C 92.007812 -6.5 95.835938 -8.832031 99.328125 -11.71875 C 102.816406 -14.613281 105.960938 -17.929688 108.765625 -21.671875 C 111.566406 -25.410156 113.988281 -29.238281 116.03125 -33.15625 Z M 119.09375 -18.109375 "/></g></g></g><g fill="#000000" fill-opacity="1"><g transform="translate(1249.325094, 804.162919)"><g><path d="M 94.359375 -31.109375 C 94.359375 -25.328125 93.125 -20.351562 90.65625 -16.1875 C 88.1875 -12.03125 85 -8.632812 81.09375 -6 C 77.1875 -3.363281 72.765625 -1.445312 67.828125 -0.25 C 62.898438 0.933594 57.882812 1.53125 52.78125 1.53125 C 49.550781 1.53125 46.40625 1.101562 43.34375 0.25 C 40.289062 -0.59375 37.359375 -1.484375 34.546875 -2.421875 C 31.742188 -3.359375 28.984375 -4.25 26.265625 -5.09375 C 23.546875 -5.945312 20.828125 -6.375 18.109375 -6.375 C 16.234375 -6.375 14.445312 -5.863281 12.75 -4.84375 C 11.050781 -3.820312 9.691406 -2.546875 8.671875 -1.015625 L 8.671875 -39.53125 C 10.203125 -35.101562 12.367188 -30.59375 15.171875 -26 C 17.972656 -21.414062 21.285156 -17.296875 25.109375 -13.640625 C 28.941406 -9.984375 33.191406 -6.960938 37.859375 -4.578125 C 42.535156 -2.203125 47.425781 -1.015625 52.53125 -1.015625 C 56.101562 -1.015625 59.757812 -1.394531 63.5 -2.15625 C 67.238281 -2.925781 70.59375 -4.203125 73.5625 -5.984375 C 76.539062 -7.773438 79.007812 -10.15625 80.96875 -13.125 C 82.925781 -16.101562 83.90625 -19.71875 83.90625 -23.96875 C 83.90625 -29.238281 82.117188 -33.613281 78.546875 -37.09375 C 74.972656 -40.582031 70.507812 -43.769531 65.15625 -46.65625 C 59.800781 -49.550781 53.976562 -52.316406 47.6875 -54.953125 C 41.394531 -57.585938 35.570312 -60.644531 30.21875 -64.125 C 24.863281 -67.613281 20.398438 -71.78125 16.828125 -76.625 C 13.253906 -81.476562 11.46875 -87.472656 11.46875 -94.609375 C 11.46875 -100.046875 12.53125 -104.804688 14.65625 -108.890625 C 16.78125 -112.972656 19.585938 -116.414062 23.078125 -119.21875 C 26.566406 -122.019531 30.601562 -124.097656 35.1875 -125.453125 C 39.78125 -126.816406 44.628906 -127.5 49.734375 -127.5 C 53.128906 -127.5 56.359375 -127.03125 59.421875 -126.09375 C 62.484375 -125.164062 65.332031 -124.148438 67.96875 -123.046875 C 70.601562 -121.941406 73.023438 -120.921875 75.234375 -119.984375 C 77.441406 -119.046875 79.3125 -118.578125 80.84375 -118.578125 C 83.21875 -118.578125 85.082031 -119.300781 86.4375 -120.75 C 87.800781 -122.195312 88.828125 -123.851562 89.515625 -125.71875 C 89.335938 -120.445312 88.992188 -115.21875 88.484375 -110.03125 C 87.972656 -104.851562 87.71875 -99.628906 87.71875 -94.359375 C 86.53125 -98.429688 84.660156 -102.335938 82.109375 -106.078125 C 79.566406 -109.828125 76.59375 -113.144531 73.1875 -116.03125 C 69.789062 -118.925781 66.050781 -121.265625 61.96875 -123.046875 C 57.882812 -124.828125 53.632812 -125.71875 49.21875 -125.71875 C 45.820312 -125.71875 42.460938 -125.25 39.140625 -124.3125 C 35.828125 -123.382812 32.894531 -122.023438 30.34375 -120.234375 C 27.789062 -118.453125 25.707031 -116.15625 24.09375 -113.34375 C 22.476562 -110.539062 21.671875 -107.269531 21.671875 -103.53125 C 21.671875 -98.09375 23.457031 -93.546875 27.03125 -89.890625 C 30.601562 -86.234375 35.109375 -82.875 40.546875 -79.8125 C 45.984375 -76.757812 51.804688 -73.867188 58.015625 -71.140625 C 64.222656 -68.421875 70.046875 -65.273438 75.484375 -61.703125 C 80.921875 -58.140625 85.425781 -53.9375 89 -49.09375 C 92.570312 -44.25 94.359375 -38.253906 94.359375 -31.109375 Z M 94.359375 -31.109375 "/></g></g></g><g fill="#000000" fill-opacity="1"><g transform="translate(1345.727001, 804.162919)"><g/></g></g></svg>